<svg width="48" height="48" viewBox="0 0 48 48" xmlns="http://www.w3.org/2000/svg">
<path fill-rule="evenodd" clip-rule="evenodd" d="M10.894 23.9867C11.1781 23.6766 11.5794 23.5 12 23.5H37C37.4206 23.5 37.8219 23.6766 38.106 23.9867C38.3902 24.2969 38.531 24.7121 38.4943 25.1311L36.7399 45.1311C36.6719 45.9057 36.0232 46.5 35.2456 46.5H13.7544C12.9768 46.5 12.3281 45.9057 12.2601 45.1311L10.5057 25.1311C10.469 24.7121 10.6098 24.2969 10.894 23.9867ZM13.6373 26.5L15.1286 43.5H33.8714L35.3627 26.5H13.6373Z" />
<path fill-rule="evenodd" clip-rule="evenodd" d="M9 17.5C9.82843 17.5 10.5 18.1716 10.5 19V23.5H37.5V20.5H25C24.1716 20.5 23.5 19.8284 23.5 19C23.5 18.1716 24.1716 17.5 25 17.5H39C39.8284 17.5 40.5 18.1716 40.5 19V25C40.5 25.8284 39.8284 26.5 39 26.5H9C8.17157 26.5 7.5 25.8284 7.5 25V19C7.5 18.1716 8.17157 17.5 9 17.5Z" />
<path fill-rule="evenodd" clip-rule="evenodd" d="M37.0222 11.9022C37.3269 12.186 37.5 12.5836 37.5 13V19C37.5 19.8284 36.8284 20.5 36 20.5C35.1716 20.5 34.5 19.8284 34.5 19V14.611L13.5 16.111V19C13.5 19.8284 12.8284 20.5 12 20.5H9C8.17157 20.5 7.5 19.8284 7.5 19C7.5 18.1716 8.17157 17.5 9 17.5H10.5V14.7143C10.5 13.9273 11.1082 13.2742 11.8931 13.2181L35.8931 11.5038C36.3085 11.4741 36.7174 11.6185 37.0222 11.9022Z" />
<path fill-rule="evenodd" clip-rule="evenodd" d="M16 14V8C16 7.44772 16.4477 7 17 7H18C18.5523 7 19 7.44772 19 8V14H16Z" />
</svg>
