<svg width="48" height="48" viewBox="0 0 48 48" xmlns="http://www.w3.org/2000/svg">
<path fill-rule="evenodd" clip-rule="evenodd" d="M10.9042 17.9757C11.1879 17.6722 11.5846 17.5 12 17.5H37C37.4154 17.5 37.8121 17.6722 38.0958 17.9757C38.3794 18.2791 38.5246 18.6866 38.4966 19.101L36.7422 45.101C36.6891 45.8884 36.0348 46.5 35.2456 46.5H13.7544C12.9652 46.5 12.3109 45.8884 12.2578 45.101L10.5034 19.101C10.4754 18.6866 10.6206 18.2791 10.9042 17.9757ZM13.6046 20.5L15.1566 43.5H33.8434L35.3954 20.5H13.6046Z" />
<path fill-rule="evenodd" clip-rule="evenodd" d="M9 11.5C9.82843 11.5 10.5 12.1716 10.5 13V17.5H37.5V14.5H25C24.1716 14.5 23.5 13.8284 23.5 13C23.5 12.1716 24.1716 11.5 25 11.5H39C39.8284 11.5 40.5 12.1716 40.5 13V19C40.5 19.8284 39.8284 20.5 39 20.5H9C8.17157 20.5 7.5 19.8284 7.5 19V13C7.5 12.1716 8.17157 11.5 9 11.5Z" />
<path fill-rule="evenodd" clip-rule="evenodd" d="M37.0222 5.90221C37.3269 6.18596 37.5 6.58361 37.5 7V13C37.5 13.8284 36.8284 14.5 36 14.5C35.1716 14.5 34.5 13.8284 34.5 13V8.61096L13.5 10.111V13C13.5 13.8284 12.8284 14.5 12 14.5H9C8.17157 14.5 7.5 13.8284 7.5 13C7.5 12.1716 8.17157 11.5 9 11.5H10.5V8.71429C10.5 7.92733 11.1082 7.27417 11.8931 7.2181L35.8931 5.50381C36.3085 5.47415 36.7174 5.61846 37.0222 5.90221Z" />
<path fill-rule="evenodd" clip-rule="evenodd" d="M16 8V2C16 1.44772 16.4477 1 17 1H18C18.5523 1 19 1.44772 19 2V8H16Z"/>
</svg>
