<svg height="100%" style="fill-rule:evenodd;clip-rule:evenodd;stroke-linejoin:round;stroke-miterlimit:2;" version="1.1"
  viewBox="0 0 64 64" width="100%" xml:space="preserve" xmlns="http://www.w3.org/2000/svg"
  xmlns:serif="http://www.serif.com/" xmlns:xlink="http://www.w3.org/1999/xlink">
  <g transform="matrix(1,0,0,1,-303,-78)">
    <g id="Artboard1" transform="matrix(1,0,0,1,303,78)">
      
      <g transform="matrix(1,0,0,1,-303,-78)">
        <path
          d="M335,80.75C318.856,80.75 305.75,93.856 305.75,110C305.75,126.144 318.856,139.25 335,139.25C351.144,139.25 364.25,126.144 364.25,110C364.25,93.856 351.144,80.75 335,80.75ZM335,83.25C349.764,83.25 361.75,95.236 361.75,110C361.75,124.764 349.764,136.75 335,136.75C320.236,136.75 308.25,124.764 308.25,110C308.25,95.236 320.236,83.25 335,83.25Z" />
      </g>
      <g transform="matrix(0.5,0,0,1,-135.5,-78)">
        <path
          d="M335,80.75C328.09,80.75 321.583,82.903 316.403,86.701C309.232,91.959 304.5,100.435 304.5,110C304.5,119.565 309.232,128.041 316.403,133.299C321.583,137.097 328.09,139.25 335,139.25C341.91,139.25 348.417,137.097 353.597,133.299C360.768,128.041 365.5,119.565 365.5,110C365.5,100.435 360.768,91.959 353.597,86.701C348.417,82.903 341.91,80.75 335,80.75ZM335,83.25C340.454,83.25 345.378,85.112 349.466,88.11C356.198,93.046 360.5,101.021 360.5,110C360.5,118.979 356.198,126.954 349.466,131.89C345.378,134.888 340.454,136.75 335,136.75C329.546,136.75 324.622,134.888 320.534,131.89C313.802,126.954 309.5,118.979 309.5,110C309.5,101.021 313.802,93.046 320.534,88.11C324.622,85.112 329.546,83.25 335,83.25Z" />
      </g>
      <g transform="matrix(1,0,0,-1,-303,142)">
        <path
          d="M312.077,93.64C311.622,93.195 311.575,92.478 311.968,91.976C317.324,85.143 325.653,80.75 335,80.75C344.347,80.75 352.676,85.143 358.032,91.976C358.425,92.478 358.378,93.195 357.923,93.64C352.59,98.865 344.307,102.25 335,102.25C325.693,102.25 317.41,98.865 312.077,93.64ZM314.661,92.632C319.592,97.004 326.883,99.75 335,99.75C343.117,99.75 350.408,97.004 355.339,92.632C350.431,86.892 343.137,83.25 335,83.25C326.863,83.25 319.569,86.892 314.661,92.632L314.661,92.632Z" />
      </g>
      <g transform="matrix(1,0,0,1,-303,-78)">
        <path
          d="M311.968,91.976C311.575,92.478 311.622,93.195 312.077,93.64C317.41,98.865 325.693,102.25 335,102.25C344.307,102.25 352.59,98.865 357.923,93.64C358.378,93.195 358.425,92.478 358.032,91.976C352.676,85.143 344.347,80.75 335,80.75C325.653,80.75 317.324,85.143 311.968,91.976ZM314.661,92.632C319.569,86.892 326.863,83.25 335,83.25C343.137,83.25 350.431,86.892 355.339,92.632C350.408,97.004 343.117,99.75 335,99.75C326.883,99.75 319.592,97.004 314.661,92.632L314.661,92.632Z" />
      </g>
      <g transform="matrix(1,0,0,1,-303,-78)">
        <path
          d="M307,111.25L363,111.25C363.69,111.25 364.25,110.69 364.25,110C364.25,109.31 363.69,108.75 363,108.75L307,108.75C306.31,108.75 305.75,109.31 305.75,110C305.75,110.69 306.31,111.25 307,111.25Z" />
      </g>
      <g transform="matrix(6.12323e-17,-1,1,6.12323e-17,-78,367)">
        <path
          d="M307,111.25L363,111.25C363.69,111.25 364.25,110.69 364.25,110C364.25,109.31 363.69,108.75 363,108.75L307,108.75C306.31,108.75 305.75,109.31 305.75,110C305.75,110.69 306.31,111.25 307,111.25Z" />
      </g>
    </g>
  </g>
</svg>