<?xml version="1.0" encoding="iso-8859-1"?>
<!-- Uploaded to: SVG Repo, www.svgrepo.com, Generator: SVG Repo Mixer Tools -->
<svg height="800px" width="800px" version="1.1" id="Layer_1" xmlns="http://www.w3.org/2000/svg" xmlns:xlink="http://www.w3.org/1999/xlink" 
	 viewBox="0 0 512 512" xml:space="preserve">
<g>
	<path style="fill:#3083C9;" d="M494.345,423.724H17.655C7.901,423.724,0,415.823,0,406.069V105.931
		c0-9.754,7.901-17.655,17.655-17.655h476.69c9.754,0,17.655,7.901,17.655,17.655v300.138
		C512,415.823,504.099,423.724,494.345,423.724"/>
	<g>
		<polygon style="fill:#FFFFFF;" points="35.31,158.897 105.931,158.897 105.931,123.586 35.31,123.586 		"/>
		<polygon style="fill:#FFFFFF;" points="141.241,158.897 211.862,158.897 211.862,123.586 141.241,123.586 		"/>
		<polygon style="fill:#FFFFFF;" points="247.172,158.897 317.793,158.897 317.793,123.586 247.172,123.586 		"/>
		<polygon style="fill:#FFFFFF;" points="353.103,158.897 423.724,158.897 423.724,123.586 353.103,123.586 		"/>
		<polygon style="fill:#FFFFFF;" points="459.034,158.897 512,158.897 512,123.586 459.034,123.586 		"/>
		<polygon style="fill:#FFFFFF;" points="35.31,388.414 105.931,388.414 105.931,353.103 35.31,353.103 		"/>
		<polygon style="fill:#FFFFFF;" points="141.241,388.414 211.862,388.414 211.862,353.103 141.241,353.103 		"/>
		<polygon style="fill:#FFFFFF;" points="247.172,388.414 317.793,388.414 317.793,353.103 247.172,353.103 		"/>
		<polygon style="fill:#FFFFFF;" points="353.103,388.414 423.724,388.414 423.724,353.103 353.103,353.103 		"/>
		<polygon style="fill:#FFFFFF;" points="459.034,388.414 512,388.414 512,353.103 459.034,353.103 		"/>
		<polygon style="fill:#FFFFFF;" points="317.793,256 194.207,317.793 194.207,194.207 		"/>
	</g>
</g>
</svg>