<?xml version="1.0" standalone="no"?>
<!DOCTYPE svg PUBLIC "-//W3C//DTD SVG 20010904//EN"
 "http://www.w3.org/TR/2001/REC-SVG-20010904/DTD/svg10.dtd">
<svg version="1.0" xmlns="http://www.w3.org/2000/svg"
 width="512.000000pt" height="512.000000pt" viewBox="0 0 512.000000 512.000000"
 preserveAspectRatio="xMidYMid meet">
<metadata>
Created by potrace 1.14, written by Peter Selinger 2001-2017
</metadata>
<g transform="translate(0.000000,512.000000) scale(0.100000,-0.100000)"
fill="#000000" stroke="none">
<path d="M1605 4507 c-65 -30 -60 64 -63 -1216 -3 -1308 -7 -1230 71 -1391 34
-70 57 -101 132 -175 102 -102 187 -151 320 -185 76 -19 111 -20 1232 -20 858
0 1160 3 1176 12 33 17 44 37 58 101 22 107 -29 458 -105 724 -54 186 -99 302
-196 498 -295 597 -753 1056 -1360 1360 -238 120 -565 227 -810 265 -41 6 -93
15 -115 20 -22 5 -101 11 -175 14 -103 5 -142 3 -165 -7z"/>
<path d="M779 4477 c-84 -32 -139 -80 -182 -161 l-22 -41 -3 -1215 c-2 -871 0
-1240 8 -1305 40 -309 173 -572 401 -790 178 -170 405 -286 653 -333 83 -16
202 -17 1371 -17 l1280 0 51 27 c57 30 103 77 136 141 33 61 33 194 0 255 -33
62 -84 114 -139 142 l-48 25 -1275 5 -1275 5 -81 28 c-208 70 -385 249 -456
462 l-23 70 -5 1245 -5 1245 -28 57 c-30 62 -75 106 -140 140 -52 26 -166 34
-218 15z"/>
</g>
</svg>
